<mxfile host="65bd71144e">
    <diagram id="tArJXr_ngYB5M89gvlPa" name="Page-1">
        <mxGraphModel dx="1039" dy="497" grid="1" gridSize="10" guides="1" tooltips="1" connect="1" arrows="1" fold="1" page="1" pageScale="1" pageWidth="850" pageHeight="1100" math="0" shadow="0">
            <root>
                <mxCell id="0"/>
                <mxCell id="1" parent="0"/>
                <mxCell id="40" value="fishingBoat.js" style="rounded=0;whiteSpace=wrap;html=1;" parent="1" vertex="1">
                    <mxGeometry x="20" y="30" width="120" height="40" as="geometry"/>
                </mxCell>
                <mxCell id="41" value="fishMonger.js" style="rounded=0;whiteSpace=wrap;html=1;" parent="1" vertex="1">
                    <mxGeometry x="150" y="30" width="120" height="40" as="geometry"/>
                </mxCell>
                <mxCell id="42" value="main.js" style="rounded=0;whiteSpace=wrap;html=1;" parent="1" vertex="1">
                    <mxGeometry x="280" y="30" width="120" height="40" as="geometry"/>
                </mxCell>
                <mxCell id="43" value="restuarant.js" style="rounded=0;whiteSpace=wrap;html=1;" parent="1" vertex="1">
                    <mxGeometry x="410" y="30" width="120" height="40" as="geometry"/>
                </mxCell>
                <mxCell id="44" value="" style="endArrow=none;html=1;entryX=0.45;entryY=1.025;entryDx=0;entryDy=0;entryPerimeter=0;exitX=0.5;exitY=0;exitDx=0;exitDy=0;" parent="1" target="40" edge="1">
                    <mxGeometry width="50" height="50" relative="1" as="geometry">
                        <mxPoint x="70" y="460" as="sourcePoint"/>
                        <mxPoint x="610" y="400" as="targetPoint"/>
                    </mxGeometry>
                </mxCell>
                <mxCell id="45" value="" style="endArrow=none;html=1;entryX=0.45;entryY=1.025;entryDx=0;entryDy=0;entryPerimeter=0;exitX=0.5;exitY=0;exitDx=0;exitDy=0;" parent="1" source="54" edge="1">
                    <mxGeometry width="50" height="50" relative="1" as="geometry">
                        <mxPoint x="208" y="669" as="sourcePoint"/>
                        <mxPoint x="212" y="70" as="targetPoint"/>
                    </mxGeometry>
                </mxCell>
                <mxCell id="46" value="" style="endArrow=none;html=1;entryX=0.45;entryY=1.025;entryDx=0;entryDy=0;entryPerimeter=0;exitX=0.5;exitY=0;exitDx=0;exitDy=0;" parent="1" source="55" edge="1">
                    <mxGeometry width="50" height="50" relative="1" as="geometry">
                        <mxPoint x="340" y="550" as="sourcePoint"/>
                        <mxPoint x="342" y="70" as="targetPoint"/>
                    </mxGeometry>
                </mxCell>
                <mxCell id="47" value="" style="endArrow=none;html=1;entryX=0.45;entryY=1.025;entryDx=0;entryDy=0;entryPerimeter=0;startArrow=none;exitX=0.5;exitY=0;exitDx=0;exitDy=0;" parent="1" source="56" edge="1">
                    <mxGeometry width="50" height="50" relative="1" as="geometry">
                        <mxPoint x="474.8101265822784" y="440" as="sourcePoint"/>
                        <mxPoint x="472" y="70" as="targetPoint"/>
                    </mxGeometry>
                </mxCell>
                <mxCell id="48" value="" style="endArrow=classic;html=1;" parent="1" edge="1">
                    <mxGeometry relative="1" as="geometry">
                        <mxPoint x="210" y="100" as="sourcePoint"/>
                        <mxPoint x="80" y="100" as="targetPoint"/>
                    </mxGeometry>
                </mxCell>
                <mxCell id="49" value="Hey, what did you&lt;br&gt;catch today?" style="edgeLabel;resizable=0;html=1;align=center;verticalAlign=middle;labelBorderColor=default;" parent="48" connectable="0" vertex="1">
                    <mxGeometry relative="1" as="geometry"/>
                </mxCell>
                <mxCell id="50" value="" style="endArrow=classic;html=1;dashed=1;" parent="1" edge="1">
                    <mxGeometry relative="1" as="geometry">
                        <mxPoint x="80" y="140" as="sourcePoint"/>
                        <mxPoint x="210" y="140" as="targetPoint"/>
                        <Array as="points"/>
                    </mxGeometry>
                </mxCell>
                <mxCell id="51" value="Here's what I caught&amp;nbsp;" style="edgeLabel;resizable=0;html=1;align=center;verticalAlign=middle;labelBorderColor=default;" parent="50" connectable="0" vertex="1">
                    <mxGeometry relative="1" as="geometry"/>
                </mxCell>
                <mxCell id="52" value="Filter catch with&lt;br&gt;&amp;nbsp;amount and price to&amp;nbsp;&lt;br&gt;create MongerSupply" style="html=1;dashed=0;whitespace=wrap;shape=mxgraph.dfd.loop;labelBorderColor=none;strokeColor=default;" parent="1" vertex="1">
                    <mxGeometry x="150" y="160" width="120" height="50" as="geometry"/>
                </mxCell>
                <mxCell id="53" value="fishingBoat.js" style="rounded=0;whiteSpace=wrap;html=1;" parent="1" vertex="1">
                    <mxGeometry x="20" y="460" width="120" height="40" as="geometry"/>
                </mxCell>
                <mxCell id="54" value="fishMonger.js" style="rounded=0;whiteSpace=wrap;html=1;" parent="1" vertex="1">
                    <mxGeometry x="150" y="460" width="120" height="40" as="geometry"/>
                </mxCell>
                <mxCell id="55" value="main.js" style="rounded=0;whiteSpace=wrap;html=1;" parent="1" vertex="1">
                    <mxGeometry x="280" y="460" width="120" height="40" as="geometry"/>
                </mxCell>
                <mxCell id="56" value="restuarant.js" style="rounded=0;whiteSpace=wrap;html=1;" parent="1" vertex="1">
                    <mxGeometry x="410" y="460" width="120" height="40" as="geometry"/>
                </mxCell>
                <mxCell id="57" value="" style="endArrow=classic;html=1;" parent="1" edge="1">
                    <mxGeometry relative="1" as="geometry">
                        <mxPoint x="340" y="170" as="sourcePoint"/>
                        <mxPoint x="470" y="170" as="targetPoint"/>
                    </mxGeometry>
                </mxCell>
                <mxCell id="58" value="Here is &lt;br&gt;dailyPriceLimit" style="edgeLabel;resizable=0;html=1;align=center;verticalAlign=middle;labelBorderColor=default;strokeColor=default;" parent="57" connectable="0" vertex="1">
                    <mxGeometry relative="1" as="geometry"/>
                </mxCell>
                <mxCell id="59" value="" style="endArrow=classic;html=1;" parent="1" edge="1">
                    <mxGeometry relative="1" as="geometry">
                        <mxPoint x="470" y="240" as="sourcePoint"/>
                        <mxPoint x="210" y="240" as="targetPoint"/>
                    </mxGeometry>
                </mxCell>
                <mxCell id="60" value="Here is dailyPriceLimit&lt;br&gt;Invoke chefInventory" style="edgeLabel;resizable=0;html=1;align=center;verticalAlign=middle;labelBorderColor=default;strokeColor=default;" parent="59" connectable="0" vertex="1">
                    <mxGeometry relative="1" as="geometry"/>
                </mxCell>
                <mxCell id="61" value="" style="endArrow=classic;html=1;dashed=1;" parent="1" edge="1">
                    <mxGeometry relative="1" as="geometry">
                        <mxPoint x="210" y="330" as="sourcePoint"/>
                        <mxPoint x="470" y="330" as="targetPoint"/>
                    </mxGeometry>
                </mxCell>
                <mxCell id="62" value="Here is chefPurchases" style="edgeLabel;resizable=0;html=1;align=center;verticalAlign=middle;labelBorderColor=default;strokeColor=default;" parent="61" connectable="0" vertex="1">
                    <mxGeometry relative="1" as="geometry"/>
                </mxCell>
                <mxCell id="63" value="Filter MongerSupply&lt;br&gt;&amp;nbsp;with dailyPriceLimit to&amp;nbsp;&lt;br&gt;create chefPurchases" style="html=1;dashed=0;whitespace=wrap;shape=mxgraph.dfd.loop;labelBorderColor=none;strokeColor=default;" parent="1" vertex="1">
                    <mxGeometry x="140" y="260" width="130" height="50" as="geometry"/>
                </mxCell>
                <mxCell id="64" value="Loop through &lt;br&gt;chefPurchases to&lt;br&gt;print menu" style="html=1;dashed=0;whitespace=wrap;shape=mxgraph.dfd.loop;labelBorderColor=none;strokeColor=default;" parent="1" vertex="1">
                    <mxGeometry x="400" y="360" width="130" height="50" as="geometry"/>
                </mxCell>
                <mxCell id="66" value="" style="endArrow=classic;html=1;dashed=1;" parent="1" edge="1">
                    <mxGeometry relative="1" as="geometry">
                        <mxPoint x="470" y="440" as="sourcePoint"/>
                        <mxPoint x="340" y="440" as="targetPoint"/>
                    </mxGeometry>
                </mxCell>
                <mxCell id="67" value="Here is&lt;br&gt;menu" style="edgeLabel;resizable=0;html=1;align=center;verticalAlign=middle;labelBorderColor=default;strokeColor=default;" parent="66" connectable="0" vertex="1">
                    <mxGeometry relative="1" as="geometry"/>
                </mxCell>
            </root>
        </mxGraphModel>
    </diagram>
</mxfile>